#N canvas 82 53 241 202 10;
#X obj 72 137 outlet~;
#X obj 72 49 inlet~;
#X obj 72 107 tabread4~ Window;
#X obj 123 58 r sample-rate;
#X obj 72 74 *~;
#X connect 1 0 4 0;
#X connect 2 0 0 0;
#X connect 3 0 4 1;
#X connect 4 0 2 0;
