#N canvas 396 23 814 551 10;
#X obj 11 21 hsl 195 8 0 1 0 0 empty r-grain-1 empty -2 -8 0 10 -262144
-1 -1 18582 1;
#X obj 675 174 bng 14 250 50 0 empty empty Ph 3 8 0 8 -262144 -1 -1
;
#X obj 744 174 nbx 4 14 0 100 0 1 empty empty Ph 26 8 0 8 -262144 -1
-1 0 256;
#N canvas 14 86 447 598 phasor-main 0;
#X obj 97 369 phasor~;
#X floatatom 191 85 5 0 0 0 - - -;
#X obj 144 12 r speed-in-hz;
#X obj 144 51 t b f;
#X obj 136 350 r retrig;
#X text 148 369 <<< Use same phasor for all grains;
#X obj 97 490 *~;
#X obj 253 419 nbx 4 14 0 100 0 1 empty empty empty 0 -8 0 10 -262144
-1 -1 0 256;
#X obj 253 435 * 0.01;
#X obj 253 473 vline~;
#X obj 253 454 pack 0 500;
#X text 304 418 Main Phasor multiplyer;
#X obj 40 51 inlet;
#X obj 253 396 inlet;
#X obj 97 405 multiplex~;
#N canvas 0 22 450 300 sine/cos 0;
#X obj 127 53 inlet~;
#X obj 128 123 cos~;
#X obj 127 102 wrap~;
#X obj 128 149 *~ 0.5;
#X obj 128 171 +~ 0.5;
#X obj 127 81 +~ 0.5;
#X obj 128 193 outlet~;
#X connect 0 0 5 0;
#X connect 1 0 3 0;
#X connect 2 0 1 0;
#X connect 3 0 4 0;
#X connect 4 0 6 0;
#X connect 5 0 2 0;
#X restore 154 386 pd sine/cos;
#X obj 31 388 inlet;
#X floatatom 31 410 5 0 0 0 - - -;
#X obj 97 539 s~ phasor-main;
#X obj 377 464 * 0.01;
#X obj 377 502 vline~;
#X text 325 463 Position;
#X obj 97 519 +~;
#X obj 377 445 inlet;
#X obj 116 68 +;
#X obj 144 32 ftom;
#X obj 116 90 mtof;
#X floatatom 191 107 10 0 0 0 - - -;
#X obj 153 290 * -1;
#X floatatom 190 307 5 0 0 0 - - -;
#X obj 97 307 mux . .;
#X obj 134 271 sel 0 1;
#X obj 97 288 f;
#X obj 134 252 t f f;
#X obj 193 235 inlet reverse;
#X obj 97 144 mux . .;
#X obj 40 70 != -64;
#X obj 40 89 t f f;
#X obj 116 125 f;
#X obj 40 108 sel 0 1;
#X msg 40 127 0;
#X text 51 287 Reverse;
#X text 33 145 Stop = -64;
#X obj 377 483 pack 0 10;
#X connect 0 0 15 0;
#X connect 0 0 14 0;
#X connect 2 0 25 0;
#X connect 3 0 24 0;
#X connect 3 1 24 1;
#X connect 4 0 0 1;
#X connect 6 0 22 0;
#X connect 7 0 8 0;
#X connect 8 0 10 0;
#X connect 9 0 6 1;
#X connect 10 0 9 0;
#X connect 12 0 24 0;
#X connect 12 0 36 0;
#X connect 13 0 8 0;
#X connect 14 0 6 0;
#X connect 15 0 14 1;
#X connect 16 0 14 0;
#X connect 16 0 17 0;
#X connect 19 0 43 0;
#X connect 20 0 22 1;
#X connect 22 0 18 0;
#X connect 23 0 19 0;
#X connect 24 0 26 0;
#X connect 24 0 1 0;
#X connect 25 0 3 0;
#X connect 26 0 27 0;
#X connect 26 0 38 0;
#X connect 28 0 29 0;
#X connect 28 0 30 1;
#X connect 30 0 0 0;
#X connect 31 0 32 0;
#X connect 31 1 28 0;
#X connect 32 0 30 0;
#X connect 33 0 31 0;
#X connect 33 1 30 2;
#X connect 34 0 33 0;
#X connect 35 0 28 0;
#X connect 35 0 32 0;
#X connect 36 0 37 0;
#X connect 37 0 39 0;
#X connect 37 1 35 2;
#X connect 38 0 35 1;
#X connect 39 0 40 0;
#X connect 39 1 38 0;
#X connect 40 0 35 0;
#X connect 43 0 20 0;
#X restore 362 185 pd phasor-main;
#X obj 462 171 nbx 4 14 -64 128 0 1 empty empty Speed 0 -8 0 10 -262144
-1 -1 0 256;
#X obj 509 171 nbx 4 14 0 100 0 1 empty empty Multiply 0 -8 0 10 -262144
-1 -1 100 256;
#N canvas 0 23 450 300 phase-rst 0;
#X obj 133 79 t b;
#X obj 133 130 s retrig;
#X msg 133 111 0;
#X msg 167 94 set \$1;
#X obj 167 75 * 0.01;
#X obj 216 94 loadbang;
#X obj 133 22 inlet;
#X obj 167 43 inlet;
#X connect 0 0 2 0;
#X connect 2 0 1 0;
#X connect 3 0 2 0;
#X connect 4 0 3 0;
#X connect 5 0 2 0;
#X connect 6 0 0 0;
#X connect 7 0 4 0;
#X restore 675 190 pd phase-rst;
#N canvas 0 22 450 300 select-wave 0;
#X obj 100 100 hradio 14 1 1 2 empty empty Saw 2 8 0 10 -262144 -261234
-1 0;
#X obj 100 119 outlet;
#N canvas 0 22 450 300 select 0;
#X obj 126 67 inlet;
#X obj 126 89 sel 0 1;
#X obj 126 156 outlet;
#X msg 126 111 label Saw;
#X msg 145 133 label Sin;
#X connect 0 0 1 0;
#X connect 1 0 3 0;
#X connect 1 1 4 0;
#X connect 3 0 2 0;
#X connect 4 0 2 0;
#X restore 100 73 pd select;
#X connect 0 0 1 0;
#X connect 0 0 2 0;
#X connect 2 0 0 0;
#X coords 0 -1 1 1 28 14 2 100 100;
#X restore 431 171 pd select-wave;
#X obj 560 171 nbx 4 14 0 100 0 1 empty empty Phase 0 -8 0 10 -262144
-1 -1 0 256;
#X msg 462 135 0;
#X obj 608 171 tgl 14 1 empty empty empty 17 7 0 10 -262144 -1 -1 0
1;
#X obj 647 269 s note-pitch;
#X obj 11 29 hsl 195 8 0 1 0 0 empty r-grain-2 empty -2 -8 0 10 -262144
-1 -1 18559 1;
#X obj 572 212 nbx 3 14 0 100 0 1 empty empty empty 0 -8 0 10 -262144
-1 -1 0 256;
#X obj 572 229 s random-position;
#X obj 11 37 hsl 195 8 0 1 0 0 empty r-grain-3 empty -2 -8 0 10 -262144
-1 -1 18560 1;
#X obj 11 45 hsl 195 8 0 1 0 0 empty r-grain-4 empty -2 -8 0 10 -262144
-1 -1 18551 1;
#X obj 11 53 hsl 195 8 0 1 0 0 empty r-grain-5 empty -2 -8 0 10 -262144
-1 -1 18572 1;
#X obj 11 61 hsl 195 8 0 1 0 0 empty r-grain-6 empty -2 -8 0 10 -262144
-1 -1 18544 1;
#X obj 11 69 hsl 195 8 0 1 0 0 empty r-grain-7 empty -2 -8 0 10 -262144
-1 -1 18539 1;
#X obj 11 77 hsl 195 8 0 1 0 0 empty r-grain-8 empty -2 -8 0 10 -262144
-1 -1 18551 1;
#X obj 11 85 hsl 195 8 0 1 0 0 empty r-grain-9 empty -2 -8 0 10 -262144
-1 -1 18549 1;
#X obj 11 93 hsl 195 8 0 1 0 0 empty r-grain-10 empty -2 -8 0 10 -262144
-1 -1 18572 1;
#X obj 362 229 s grain-on;
#X obj 11 101 hsl 195 8 0 1 0 0 empty r-grain-11 empty -2 -8 0 10 -262144
-1 -1 18572 1;
#X obj 11 109 hsl 195 8 0 1 0 0 empty r-grain-12 empty -2 -8 0 10 -262144
-1 -1 18583 1;
#X obj 11 117 hsl 195 8 0 1 0 0 empty r-grain-13 empty -2 -8 0 10 -262144
-1 -1 18548 1;
#X obj 11 125 hsl 195 8 0 1 0 0 empty r-grain-14 empty -2 -8 0 10 -262144
-1 -1 18574 1;
#X obj 11 133 hsl 195 8 0 1 0 0 empty r-grain-15 empty -2 -8 0 10 -262144
-1 -1 18574 1;
#X obj 11 141 hsl 195 8 0 1 0 0 empty r-grain-16 empty -2 -8 0 10 -262144
-1 -1 18567 1;
#X obj 362 213 nbx 3 14 1 64 0 1 empty empty empty 0 -8 0 10 -262144
-1 -1 64 256;
#X obj 647 253 nbx 5 14 -1e+37 1e+37 0 1 empty empty empty 0 -8 0 10
-262144 -1 -1 -64 256;
#X obj 608 190 s reverse;
#X obj 11 149 hsl 195 8 0 1 0 0 empty r-grain-17 empty -2 -8 0 10 -262144
-1 -1 18559 1;
#X obj 11 157 hsl 195 8 0 1 0 0 empty r-grain-18 empty -2 -8 0 10 -262144
-1 -1 18575 1;
#X obj 11 165 hsl 195 8 0 1 0 0 empty r-grain-19 empty -2 -8 0 10 -262144
-1 -1 18569 1;
#X obj 11 173 hsl 195 8 0 1 0 0 empty r-grain-20 empty -2 -8 0 10 -262144
-1 -1 18545 1;
#X obj 11 181 hsl 195 8 0 1 0 0 empty r-grain-21 empty -2 -8 0 10 -262144
-1 -1 18562 1;
#X obj 11 189 hsl 195 8 0 1 0 0 empty r-grain-22 empty -2 -8 0 10 -262144
-1 -1 18556 1;
#X obj 11 197 hsl 195 8 0 1 0 0 empty r-grain-23 empty -2 -8 0 10 -262144
-1 -1 18559 1;
#X obj 11 205 hsl 195 8 0 1 0 0 empty r-grain-24 empty -2 -8 0 10 -262144
-1 -1 18553 1;
#X obj 11 213 hsl 195 8 0 1 0 0 empty r-grain-25 empty -2 -8 0 10 -262144
-1 -1 18535 1;
#X obj 11 221 hsl 195 8 0 1 0 0 empty r-grain-26 empty -2 -8 0 10 -262144
-1 -1 18559 1;
#X obj 11 229 hsl 195 8 0 1 0 0 empty r-grain-27 empty -2 -8 0 10 -262144
-1 -1 18571 1;
#X obj 11 237 hsl 195 8 0 1 0 0 empty r-grain-28 empty -2 -8 0 10 -262144
-1 -1 18543 1;
#X obj 11 245 hsl 195 8 0 1 0 0 empty r-grain-29 empty -2 -8 0 10 -262144
-1 -1 18538 1;
#X obj 11 253 hsl 195 8 0 1 0 0 empty r-grain-30 empty -2 -8 0 10 -262144
-1 -1 18557 1;
#X obj 11 261 hsl 195 8 0 1 0 0 empty r-grain-31 empty -2 -8 0 10 -262144
-1 -1 18540 1;
#X obj 11 269 hsl 195 8 0 1 0 0 empty r-grain-32 empty -2 -8 0 10 -262144
-1 -1 18570 1;
#X obj 428 213 hradio 14 1 1 2 empty empty empty 0 -8 0 10 -262144
-1 -1 0;
#X obj 428 229 s saw/sine;
#X obj 494 229 s grain-size;
#X obj 494 213 nbx 3 14 1 2048 0 1 empty empty empty 0 -8 0 10 -262144
-1 -1 25 256;
#X obj 11 277 hsl 195 8 0 1 0 0 empty r-grain-33 empty -2 -8 0 10 -262144
-1 -1 18540 1;
#X obj 11 285 hsl 195 8 0 1 0 0 empty r-grain-34 empty -2 -8 0 10 -262144
-1 -1 18564 1;
#X obj 11 293 hsl 195 8 0 1 0 0 empty r-grain-35 empty -2 -8 0 10 -262144
-1 -1 18583 1;
#X obj 11 301 hsl 195 8 0 1 0 0 empty r-grain-36 empty -2 -8 0 10 -262144
-1 -1 18547 1;
#X obj 11 309 hsl 195 8 0 1 0 0 empty r-grain-37 empty -2 -8 0 10 -262144
-1 -1 18571 1;
#X obj 11 317 hsl 195 8 0 1 0 0 empty r-grain-38 empty -2 -8 0 10 -262144
-1 -1 18559 1;
#X obj 11 325 hsl 195 8 0 1 0 0 empty r-grain-39 empty -2 -8 0 10 -262144
-1 -1 18544 1;
#X obj 11 333 hsl 195 8 0 1 0 0 empty r-grain-40 empty -2 -8 0 10 -262144
-1 -1 18550 1;
#X obj 11 341 hsl 195 8 0 1 0 0 empty r-grain-41 empty -2 -8 0 10 -262144
-1 -1 18561 1;
#X obj 11 349 hsl 195 8 0 1 0 0 empty r-grain-42 empty -2 -8 0 10 -262144
-1 -1 18575 1;
#X obj 11 357 hsl 195 8 0 1 0 0 empty r-grain-43 empty -2 -8 0 10 -262144
-1 -1 18548 1;
#X obj 11 365 hsl 195 8 0 1 0 0 empty r-grain-44 empty -2 -8 0 10 -262144
-1 -1 18573 1;
#X obj 11 373 hsl 195 8 0 1 0 0 empty r-grain-45 empty -2 -8 0 10 -262144
-1 -1 18551 1;
#X obj 11 381 hsl 195 8 0 1 0 0 empty r-grain-46 empty -2 -8 0 10 -262144
-1 -1 18560 1;
#X obj 11 389 hsl 195 8 0 1 0 0 empty r-grain-47 empty -2 -8 0 10 -262144
-1 -1 18547 1;
#X obj 11 397 hsl 195 8 0 1 0 0 empty r-grain-48 empty -2 -8 0 10 -262144
-1 -1 18556 1;
#X obj 11 405 hsl 195 8 0 1 0 0 empty r-grain-49 empty -2 -8 0 10 -262144
-1 -1 18548 1;
#X obj 11 413 hsl 195 8 0 1 0 0 empty r-grain-50 empty -2 -8 0 10 -262144
-1 -1 18567 1;
#X obj 11 421 hsl 195 8 0 1 0 0 empty r-grain-51 empty -2 -8 0 10 -262144
-1 -1 18558 1;
#X obj 11 429 hsl 195 8 0 1 0 0 empty r-grain-52 empty -2 -8 0 10 -262144
-1 -1 18538 1;
#X obj 11 437 hsl 195 8 0 1 0 0 empty r-grain-53 empty -2 -8 0 10 -262144
-1 -1 18554 1;
#X obj 11 445 hsl 195 8 0 1 0 0 empty r-grain-54 empty -2 -8 0 10 -262144
-1 -1 18553 0;
#X obj 11 453 hsl 195 8 0 1 0 0 empty r-grain-55 empty -2 -8 0 10 -262144
-1 -1 18555 1;
#X obj 11 461 hsl 195 8 0 1 0 0 empty r-grain-56 empty -2 -8 0 10 -262144
-1 -1 18550 1;
#X obj 11 469 hsl 195 8 0 1 0 0 empty r-grain-57 empty -2 -8 0 10 -262144
-1 -1 18568 1;
#X obj 11 477 hsl 195 8 0 1 0 0 empty r-grain-58 empty -2 -8 0 10 -262144
-1 -1 18562 1;
#X obj 11 485 hsl 195 8 0 1 0 0 empty r-grain-59 empty -2 -8 0 10 -262144
-1 -1 18571 1;
#X obj 11 493 hsl 195 8 0 1 0 0 empty r-grain-60 empty -2 -8 0 10 -262144
-1 -1 18558 1;
#X obj 11 501 hsl 195 8 0 1 0 0 empty r-grain-61 empty -2 -8 0 10 -262144
-1 -1 18569 1;
#X obj 11 509 hsl 195 8 0 1 0 0 empty r-grain-62 empty -2 -8 0 10 -262144
-1 -1 18582 1;
#X obj 11 517 hsl 195 8 0 1 0 0 empty r-grain-63 empty -2 -8 0 10 -262144
-1 -1 18552 1;
#X obj 11 525 hsl 195 8 0 1 0 0 empty r-grain-64 empty -2 -8 0 10 -262144
-1 -1 18570 1;
#N canvas 0 22 450 278 (subpatch) 0;
#X array grain 1.2366e+06 float 0;
#X coords 0 1 1.2366e+06 -1 200 512 1 0 0;
#X restore 8 21 graph;
#X obj 548 269 s ran-pitch-am;
#X obj 548 253 nbx 3 14 0 400 0 1 empty empty empty 0 -8 0 10 -262144
-1 -1 0 256;
#X obj 362 253 nbx 3 14 0 100 0 1 empty empty empty 0 -8 0 10 -262144
-1 -1 0 256;
#X obj 362 269 s ran-phase-am;
#X obj 362 329 s env-am;
#X obj 417 295 nbx 5 14 1 100 1 1 empty empty empty 0 -8 0 10 -262144
-1 -1 100 256;
#X obj 417 329 s env-time;
#X obj 362 295 nbx 4 14 0 1000 0 1 empty empty empty 0 -8 0 10 -262144
-1 -1 0 256;
#X obj 362 311 * 0.01;
#X obj 417 311 * 0.01;
#X obj 484 295 nbx 5 14 0 100 0 1 empty empty empty 0 -8 0 10 -262144
-1 -1 100 256;
#X obj 484 329 s p-env-prob;
#X obj 452 253 bng 14 250 50 0 empty empty empty 17 7 0 10 -262144
-1 -1;
#X obj 452 269 s ran-ph-retrig;
#N canvas 352 78 508 652 window-functions 0;
#X obj 123 218 phasor~ 1;
#X obj 329 186 tgl 15 0 empty empty empty 17 7 0 10 -262144 -1 -1 0
1;
#X floatatom 123 196 5 0 0 0 - - -;
#X obj 264 220 metro 1000;
#X obj 123 314 expr~ abs((abs($v1-0.5)*2)-1);
#X obj 181 371 expr~ min($v1*2 \, 1);
#X obj 240 480 expr~ pow($v1 \, 8);
#X obj 268 242 +;
#X obj 338 225 + 1;
#X obj 264 201 t f 0 0;
#X obj 268 261 sel 1;
#X msg 268 280 0;
#X obj 240 461 expr~ abs($v1-0.5)*2;
#X obj 240 499 expr~ abs($v1-1);
#X msg 372 205 normalize 1;
#X obj 210 399 expr~ abs($v1-0.5)*2;
#X obj 210 437 expr~ abs($v1-1);
#X obj 210 418 expr~ pow($v1 \, 0.5);
#X obj 329 134 loadbang;
#X obj 123 535 multiplex~ . . . . .;
#X text 305 314 Triangle;
#X text 269 355 Cos;
#N canvas 0 22 450 300 cosinus 0;
#X obj 173 85 inlet~;
#X obj 173 147 cos~;
#X obj 173 166 *~ 0.5;
#X obj 173 185 +~ 0.5;
#X obj 173 128 wrap~;
#X obj 173 109 +~ 0.5;
#X obj 173 207 outlet~;
#X connect 0 0 5 0;
#X connect 1 0 2 0;
#X connect 2 0 3 0;
#X connect 3 0 6 0;
#X connect 4 0 1 0;
#X connect 5 0 4 0;
#X restore 152 343 pd cosinus;
#X text 111 371 Trapazoid 1;
#X text 140 399 Trapazoid 2;
#X text 170 461 Trapazoid 3;
#X obj 200 169 t b b f;
#X text 350 421 0.125;
#X obj 123 555 tabwrite~ Window;
#X obj 372 224 s Window;
#X obj 200 100 hradio 14 1 1 5 empty empty Trapazoid-3 2 8 0 10 -262144
-261234 -1 4;
#N canvas 0 22 450 300 label 0;
#X obj 129 48 inlet;
#X obj 129 70 sel 0 1 2 3 4;
#X msg 129 92 label Triangle;
#X obj 129 189 outlet;
#X msg 144 112 label Cosinus;
#X msg 159 132 label Trapazoid-1;
#X msg 174 152 label Trapazoid-2;
#X msg 189 172 label Trapazoid-3;
#X connect 0 0 1 0;
#X connect 1 0 2 0;
#X connect 1 1 4 0;
#X connect 1 2 5 0;
#X connect 1 3 6 0;
#X connect 1 4 7 0;
#X connect 2 0 3 0;
#X connect 4 0 3 0;
#X connect 5 0 3 0;
#X connect 6 0 3 0;
#X connect 7 0 3 0;
#X restore 200 70 pd label;
#X obj 372 186 del 1001;
#N canvas 0 23 483 700 window-functions 0;
#X obj 15 93 phasor~ 1;
#X obj 147 61 tgl 15 0 empty empty empty 17 7 0 10 -262144 -1 -1 0
1;
#X floatatom 15 71 5 0 0 0 - - -;
#N canvas 0 50 450 250 (subpatch) 0;
#X array TRI 48000 float 4;
#X coords 0 1 47999 0 200 100 1 0 0;
#X restore 224 61 graph;
#X obj 14 208 tabwrite~ TRI;
#X obj 82 95 metro 1000;
#X obj 15 189 expr~ abs((abs($v1-0.5)*2)-1);
#N canvas 0 50 450 250 (subpatch) 0;
#X array TRAP 48000 float 4;
#X coords 0 1 47999 0 200 100 1 0 0;
#X restore 224 298 graph;
#X obj 15 376 tabwrite~ TRAP;
#N canvas 0 50 450 250 (subpatch) 0;
#X array TRAP_EXP1 48000 float 4;
#X coords 0 1 47999 0 200 100 1 0 0;
#X restore 224 419 graph;
#X obj 15 357 expr~ min($v1*2 \, 1);
#X obj 15 506 expr~ pow($v1 \, 8);
#X obj 86 117 +;
#X obj 156 100 + 1;
#X obj 82 76 t f 0 0;
#X obj 86 136 sel 1;
#X msg 86 155 0;
#N canvas 0 50 450 250 (subpatch) 0;
#X array COS 48000 float 4;
#X coords 0 1 47999 0 200 100 1 0 0;
#X restore 224 179 graph;
#X obj 15 330 tabwrite~ COS;
#X obj 15 273 cos~;
#X obj 15 292 *~ 0.5;
#X obj 15 311 +~ 0.5;
#X obj 15 254 wrap~;
#X obj 15 235 +~ 0.5;
#X obj 15 487 expr~ abs($v1-0.5)*2;
#X obj 15 525 expr~ abs($v1-1);
#X msg 136 439 normalize 1;
#N canvas 0 50 450 250 (subpatch) 0;
#X array TRAP_EXP2 48000 float 4;
#X coords 0 1 47999 0 200 100 1 0 0;
#X restore 224 539 graph;
#X obj 15 403 expr~ abs($v1-0.5)*2;
#X obj 15 441 expr~ abs($v1-1);
#X obj 15 422 expr~ pow($v1 \, 0.5);
#X obj 15 460 tabwrite~ TRAP_EXP1;
#X obj 15 544 tabwrite~ TRAP_EXP2;
#X obj 136 460 s TRAP_EXP1;
#X text 139 422 0.125;
#X obj 82 44 loadbang;
#X connect 0 0 6 0;
#X connect 0 0 23 0;
#X connect 0 0 24 0;
#X connect 0 0 28 0;
#X connect 1 0 14 0;
#X connect 2 0 0 0;
#X connect 5 0 4 0;
#X connect 5 0 8 0;
#X connect 5 0 12 0;
#X connect 5 0 18 0;
#X connect 5 0 31 0;
#X connect 5 0 32 0;
#X connect 6 0 4 0;
#X connect 6 0 10 0;
#X connect 10 0 8 0;
#X connect 11 0 25 0;
#X connect 12 0 13 0;
#X connect 12 0 15 0;
#X connect 13 0 12 1;
#X connect 14 0 5 0;
#X connect 14 1 0 1;
#X connect 14 1 12 1;
#X connect 15 0 16 0;
#X connect 16 0 1 0;
#X connect 19 0 20 0;
#X connect 20 0 21 0;
#X connect 21 0 18 0;
#X connect 22 0 19 0;
#X connect 23 0 22 0;
#X connect 24 0 11 0;
#X connect 25 0 32 0;
#X connect 26 0 33 0;
#X connect 28 0 30 0;
#X connect 29 0 31 0;
#X connect 30 0 29 0;
#X connect 35 0 1 0;
#X restore 32 30 pd window-functions;
#X connect 0 0 4 0;
#X connect 0 0 12 0;
#X connect 0 0 15 0;
#X connect 0 0 22 0;
#X connect 1 0 9 0;
#X connect 2 0 0 0;
#X connect 3 0 7 0;
#X connect 3 0 28 0;
#X connect 4 0 5 0;
#X connect 4 0 19 0;
#X connect 5 0 19 2;
#X connect 6 0 13 0;
#X connect 7 0 8 0;
#X connect 7 0 10 0;
#X connect 8 0 7 1;
#X connect 9 0 3 0;
#X connect 9 1 0 1;
#X connect 9 1 7 1;
#X connect 10 0 11 0;
#X connect 11 0 1 0;
#X connect 12 0 6 0;
#X connect 13 0 19 4;
#X connect 14 0 29 0;
#X connect 15 0 17 0;
#X connect 16 0 19 3;
#X connect 17 0 16 0;
#X connect 18 0 1 0;
#X connect 19 0 28 0;
#X connect 22 0 19 1;
#X connect 26 0 32 0;
#X connect 26 1 1 0;
#X connect 26 2 19 0;
#X connect 30 0 31 0;
#X connect 30 0 26 0;
#X connect 31 0 30 0;
#X connect 32 0 14 0;
#X coords 0 -1 1 1 70 14 2 200 100;
#X restore 215 172 pd window-functions;
#N canvas 0 50 450 250 (subpatch) 0;
#X array Window 48000 float 4;
#X coords 0 1 47999 0 70 50 1 0 0;
#X restore 215 120 graph;
#N canvas 121 31 565 319 filter 0;
#X floatatom 185 94 0 0 0 0 - - -;
#X floatatom 244 94 0 0 0 0 - - -;
#X obj 188 77 hsl 50 15 10 12000 1 1 empty empty empty -2 -8 0 10 -228856
-1 -1 4900 1;
#X obj 72 27 vradio 15 1 1 4 empty empty empty 0 -8 0 10 -228856 -1
-1 0;
#X text 22 26 lowpass;
#X text 16 42 highpass;
#X text 16 57 bandpass;
#X text 34 72 notch;
#X obj 247 77 hsl 50 15 0 2 0 1 empty empty empty -2 -8 0 10 -228856
-1 -1 0 1;
#X obj 72 123 + 1;
#X obj 127 30 inlet~;
#X obj 40 179 outlet~;
#X obj 40 160 multiplex~;
#X obj 12 145 tgl 15 1 empty empty empty 17 7 0 10 -262144 -1 -1 1
1;
#X obj 127 113 svf~ 800 0.5;
#X obj 97 140 selector~ 4 1;
#X connect 0 0 14 1;
#X connect 1 0 14 2;
#X connect 2 0 0 0;
#X connect 3 0 9 0;
#X connect 8 0 1 0;
#X connect 9 0 15 0;
#X connect 10 0 12 0;
#X connect 10 0 14 0;
#X connect 12 0 11 0;
#X connect 13 0 12 0;
#X connect 14 0 15 1;
#X connect 14 1 15 2;
#X connect 14 2 15 3;
#X connect 14 3 15 4;
#X connect 15 0 12 1;
#X restore 658 365 pd filter;
#N canvas 0 23 915 435 grains 0;
#X obj 54 48 +~;
#X obj 54 393 outlet~;
#X obj 54 88 +~;
#X obj 54 128 +~;
#X obj 54 168 +~;
#X obj 54 208 +~;
#X obj 54 248 +~;
#X obj 54 288 +~;
#X obj 54 328 +~;
#X obj 54 360 *~ 0.25;
#X obj 85 32 +abs+/grain 1;
#X obj 273 152 +abs+/grain 27;
#X obj 179 32 +abs+/grain 2;
#X obj 273 32 +abs+/grain 3;
#X obj 367 32 +abs+/grain 4;
#X obj 461 32 +abs+/grain 5;
#X obj 555 32 +abs+/grain 6;
#X obj 649 32 +abs+/grain 7;
#X obj 743 32 +abs+/grain 8;
#X obj 85 72 +abs+/grain 9;
#X obj 179 72 +abs+/grain 10;
#X obj 273 72 +abs+/grain 11;
#X obj 367 72 +abs+/grain 12;
#X obj 461 72 +abs+/grain 13;
#X obj 555 72 +abs+/grain 14;
#X obj 649 72 +abs+/grain 15;
#X obj 743 72 +abs+/grain 16;
#X obj 85 112 +abs+/grain 17;
#X obj 179 112 +abs+/grain 18;
#X obj 273 112 +abs+/grain 19;
#X obj 367 112 +abs+/grain 20;
#X obj 461 112 +abs+/grain 21;
#X obj 555 112 +abs+/grain 22;
#X obj 649 112 +abs+/grain 23;
#X obj 743 112 +abs+/grain 24;
#X obj 85 152 +abs+/grain 25;
#X obj 179 152 +abs+/grain 26;
#X obj 367 152 +abs+/grain 28;
#X obj 461 152 +abs+/grain 29;
#X obj 555 152 +abs+/grain 30;
#X obj 649 152 +abs+/grain 31;
#X obj 743 152 +abs+/grain 32;
#X obj 85 192 +abs+/grain 33;
#X obj 179 192 +abs+/grain 34;
#X obj 273 192 +abs+/grain 35;
#X obj 367 192 +abs+/grain 36;
#X obj 461 192 +abs+/grain 37;
#X obj 555 192 +abs+/grain 38;
#X obj 649 192 +abs+/grain 39;
#X obj 743 192 +abs+/grain 40;
#X obj 85 232 +abs+/grain 41;
#X obj 179 232 +abs+/grain 42;
#X obj 273 232 +abs+/grain 43;
#X obj 367 232 +abs+/grain 44;
#X obj 461 232 +abs+/grain 45;
#X obj 555 232 +abs+/grain 46;
#X obj 649 232 +abs+/grain 47;
#X obj 743 232 +abs+/grain 48;
#X obj 85 272 +abs+/grain 49;
#X obj 179 272 +abs+/grain 50;
#X obj 273 272 +abs+/grain 51;
#X obj 367 272 +abs+/grain 52;
#X obj 461 272 +abs+/grain 53;
#X obj 555 272 +abs+/grain 54;
#X obj 649 272 +abs+/grain 55;
#X obj 743 272 +abs+/grain 56;
#X obj 85 312 +abs+/grain 57;
#X obj 179 312 +abs+/grain 58;
#X obj 273 312 +abs+/grain 59;
#X obj 367 312 +abs+/grain 60;
#X obj 461 312 +abs+/grain 61;
#X obj 555 312 +abs+/grain 62;
#X obj 649 312 +abs+/grain 63;
#X obj 743 312 +abs+/grain 64;
#X connect 0 0 2 0;
#X connect 2 0 3 0;
#X connect 3 0 4 0;
#X connect 4 0 5 0;
#X connect 5 0 6 0;
#X connect 6 0 7 0;
#X connect 7 0 8 0;
#X connect 8 0 9 0;
#X connect 9 0 1 0;
#X connect 10 0 0 0;
#X connect 11 0 4 0;
#X connect 12 0 0 0;
#X connect 13 0 0 0;
#X connect 14 0 0 0;
#X connect 15 0 0 0;
#X connect 16 0 0 0;
#X connect 17 0 0 0;
#X connect 18 0 0 0;
#X connect 19 0 2 0;
#X connect 20 0 2 0;
#X connect 21 0 2 0;
#X connect 22 0 2 0;
#X connect 23 0 2 0;
#X connect 24 0 2 0;
#X connect 25 0 2 0;
#X connect 26 0 2 0;
#X connect 27 0 3 0;
#X connect 28 0 3 0;
#X connect 29 0 3 0;
#X connect 30 0 3 0;
#X connect 31 0 3 0;
#X connect 32 0 3 0;
#X connect 33 0 3 0;
#X connect 34 0 3 0;
#X connect 35 0 4 0;
#X connect 36 0 4 0;
#X connect 37 0 4 0;
#X connect 38 0 4 0;
#X connect 39 0 4 0;
#X connect 40 0 4 0;
#X connect 41 0 4 0;
#X connect 42 0 5 0;
#X connect 43 0 5 0;
#X connect 44 0 5 0;
#X connect 45 0 5 0;
#X connect 46 0 5 0;
#X connect 47 0 5 0;
#X connect 48 0 5 0;
#X connect 49 0 5 0;
#X connect 50 0 6 0;
#X connect 51 0 6 0;
#X connect 52 0 6 0;
#X connect 53 0 6 0;
#X connect 54 0 6 0;
#X connect 55 0 6 0;
#X connect 56 0 6 0;
#X connect 57 0 6 0;
#X connect 58 0 7 0;
#X connect 59 0 7 0;
#X connect 60 0 7 0;
#X connect 61 0 7 0;
#X connect 62 0 7 0;
#X connect 63 0 7 0;
#X connect 64 0 7 0;
#X connect 65 0 7 0;
#X connect 66 0 8 0;
#X connect 67 0 8 0;
#X connect 68 0 8 0;
#X connect 69 0 8 0;
#X connect 70 0 8 0;
#X connect 71 0 8 0;
#X connect 72 0 8 0;
#X connect 73 0 8 0;
#X coords 0 0 1 1 85 60 0;
#X restore 658 347 pd grains;
#N canvas 0 23 450 300 test-prev 0;
#X obj 135 157 r~ preview-audio;
#X obj 60 242 outlet~;
#X obj 27 180 tgl 15 0 empty empty empty 17 7 0 10 -262144 -1 -1 0
1;
#N canvas 146 334 310 265 crossfade~ 0;
#X obj 139 157 *~;
#X obj 209 157 *~;
#X obj 88 118 *~ -1;
#X obj 88 140 +~ 1;
#X obj 88 83 +~;
#X obj 183 193 outlet~;
#X obj 139 103 inlet~;
#X obj 209 103 inlet~;
#X obj 88 59 vline~;
#X obj 88 15 inlet;
#X obj 88 37 pack 0 100;
#X connect 0 0 5 0;
#X connect 1 0 5 0;
#X connect 2 0 3 0;
#X connect 3 0 0 1;
#X connect 4 0 2 0;
#X connect 4 0 1 1;
#X connect 6 0 0 0;
#X connect 7 0 1 0;
#X connect 8 0 4 0;
#X connect 9 0 10 0;
#X connect 10 0 8 0;
#X restore 60 195 pd crossfade~;
#X obj 97 95 inlet~;
#X obj 27 73 r preview-auto;
#X connect 0 0 3 2;
#X connect 2 0 3 0;
#X connect 3 0 1 0;
#X connect 4 0 3 1;
#X connect 5 0 2 0;
#X restore 658 383 pd test-prev;
#N canvas 0 23 450 300 out 0;
#X obj 115 159 dac~ 1 2;
#X obj 115 136 *~;
#X obj 160 136 *~;
#X obj 203 100 hsl 100 15 0 1 0 1 empty empty Volume 2 8 0 10 -262144
-1 -1 3400 1;
#X obj 200 120 sig~;
#X obj 115 57 inlet~;
#X obj 160 57 inlet~;
#X connect 1 0 0 0;
#X connect 2 0 0 1;
#X connect 3 0 4 0;
#X connect 4 0 1 1;
#X connect 4 0 2 1;
#X connect 5 0 1 0;
#X connect 5 0 2 0;
#X coords 0 -1 1 1 105 15 1 200 100;
#X restore 658 401 pd out;
#X obj 215 37 nbx 5 14 1 30 0 1 empty empty Wav-File 0 -8 0 10 -262144
-1 -1 1 256;
#N canvas 221 23 433 373 tablemath 0;
#X obj 65 67 soundfiler;
#X obj 65 124 /;
#X obj 139 83 s size-in-samples;
#X obj 65 86 t b f;
#X obj 65 105 samplerate~;
#X obj 139 140 s speed-in-hz;
#X obj 65 25 inlet;
#X obj 14 84 outlet;
#X obj 65 146 outlet;
#X floatatom 14 122 6 0 0 0 - - -;
#X obj 268 222 tabplay~ grain;
#X obj 258 193 inlet;
#X obj 268 270 s~ preview-audio;
#X msg 258 289 1;
#X msg 349 289 0;
#X obj 258 315 s preview-auto;
#X obj 268 244 *~ 2;
#X obj 349 193 inlet;
#X obj 139 121 s sample-rate;
#X msg 65 48 read -resize +Sounds+/Audio\$1.wav grain;
#X connect 0 0 2 0;
#X connect 0 0 3 0;
#X connect 0 0 7 0;
#X connect 1 0 5 0;
#X connect 1 0 8 0;
#X connect 3 0 4 0;
#X connect 3 1 1 1;
#X connect 4 0 1 0;
#X connect 4 0 9 0;
#X connect 4 0 18 0;
#X connect 6 0 19 0;
#X connect 10 0 16 0;
#X connect 10 1 14 0;
#X connect 11 0 10 0;
#X connect 11 0 13 0;
#X connect 13 0 15 0;
#X connect 14 0 15 0;
#X connect 16 0 12 0;
#X connect 17 0 14 0;
#X connect 19 0 0 0;
#X restore 215 53 pd tablemath;
#X floatatom 215 72 10 0 0 3 Samples - -;
#X floatatom 284 72 10 0 0 3 Hertz - -;
#X obj 294 39 bng 14 250 50 0 empty empty Pr 3 8 0 8 -262144 -1 -1
;
#X obj 314 39 bng 14 250 50 0 empty empty St 3 8 0 8 -262144 -1 -1
;
#X text 291 11 Pr - Preview the clean sound \, unchanged and mute granular
player., f 86;
#X text 291 23 St - Stop the preview and go back to granular player.
;
#X text 213 466 I run the patch at 48khz \, but you should be able
to run it at any sample rate., f 73;
#N canvas 0 22 450 300 patchstate 0;
#X obj 118 168 cputime;
#X obj 118 28 loadbang;
#X obj 118 112 metro 1000;
#X msg 118 56 1;
#X floatatom 118 84 0 0 0 0 - - -;
#X obj 118 140 t b b;
#X obj 118 228 * 0.1;
#X obj 118 197 int;
#X text 163 84 <-- on/off;
#X obj 118 250 outlet;
#X obj 258 207 samplerate~;
#X obj 258 187 r pd-dsp-started;
#X floatatom 210 224 7 0 0 0 - - -;
#X obj 258 250 outlet;
#X connect 0 0 7 0;
#X connect 1 0 3 0;
#X connect 2 0 5 0;
#X connect 3 0 4 0;
#X connect 4 0 2 0;
#X connect 5 0 0 0;
#X connect 5 1 0 1;
#X connect 6 0 9 0;
#X connect 7 0 6 0;
#X connect 10 0 12 0;
#X connect 10 0 13 0;
#X connect 11 0 10 0;
#X restore 215 201 pd patchstate;
#X floatatom 215 219 5 0 0 3 Cpu-% - -;
#X floatatom 290 219 5 0 0 3 S-Rate - -;
#X text 213 426 Patch by Jakob Skouborg 22.4.2021, f 73;
#X text 213 496 The sample that comes with the patch in the ´+Sounds+
folder is 48khz!!!!, f 73;
#X text 213 516 So if you want to run it at 44.1khz \, you need to
convert the sample!!!!, f 73;
#X text 213 446 You need to install "tof" "ext13" zexy and "cyclone"
for this patch to work properly!, f 73;
#X connect 1 0 6 0;
#X connect 2 0 6 1;
#X connect 4 0 3 1;
#X connect 5 0 3 3;
#X connect 7 0 3 0;
#X connect 8 0 3 4;
#X connect 9 0 4 0;
#X connect 10 0 3 2;
#X connect 10 0 32 0;
#X connect 13 0 14 0;
#X connect 30 0 23 0;
#X connect 31 0 11 0;
#X connect 49 0 50 0;
#X connect 52 0 51 0;
#X connect 87 0 86 0;
#X connect 88 0 89 0;
#X connect 91 0 95 0;
#X connect 93 0 94 0;
#X connect 94 0 90 0;
#X connect 95 0 92 0;
#X connect 96 0 97 0;
#X connect 98 0 99 0;
#X connect 102 0 104 0;
#X connect 103 0 102 0;
#X connect 104 0 105 0;
#X connect 106 0 107 0;
#X connect 107 0 108 0;
#X connect 107 1 109 0;
#X connect 110 0 107 1;
#X connect 111 0 107 2;
#X connect 115 0 116 0;
#X connect 115 1 117 0;
