#N canvas 681 205 508 531 10;
#X obj 100 383 t f b;
#X obj 115 42 loadbang;
#X floatatom 68 267 5 0 0 0 - - -;
#X obj 115 135 tabread \$1-test;
#X obj 100 440 tabwrite \$1-test;
#X text 18 8 \$1 parent \$0 \, \$2 param-nr;
#X text 233 161 Send loaded data to parameter;
#X text 234 251 Receive changes from parameter;
#X obj 115 84 \$2;
#X obj 115 105 +;
#X obj 259 89 t b f;
#X obj 193 399 \$2;
#X floatatom 286 112 5 0 0 0 - - -;
#X obj 276 404 t b f;
#X floatatom 303 427 5 0 0 0 - - -;
#X obj 193 420 +;
#X obj 242 38 r \$1-preset;
#X msg 242 276 1;
#X obj 115 292 spigot;
#X msg 293 276 0;
#X obj 242 59 t b f f b;
#X obj 70 353 bng 15 250 50 0 empty empty empty 17 7 0 10 -262144 -1
-1;
#X obj 100 362 f;
#X floatatom 135 313 5 0 0 0 - - -;
#X floatatom 120 413 5 0 0 0 - - -;
#X obj 100 337 r \$1-save;
#X obj 115 63 del 5;
#X text 339 19 When changing preset \, then first turn off the "receive
parameter mechanism" \, then change preset and then turn it on again.
Prevents wrong values being set., f 22;
#X floatatom 75 156 5 0 0 0 - - -;
#X obj 115 251 r \$1-s-\$2-param;
#X obj 115 160 s \$1-r-\$2-param;
#X connect 0 0 4 0;
#X connect 0 0 24 0;
#X connect 0 1 11 0;
#X connect 1 0 26 0;
#X connect 3 0 28 0;
#X connect 3 0 30 0;
#X connect 8 0 9 0;
#X connect 9 0 3 0;
#X connect 10 0 9 0;
#X connect 10 1 9 1;
#X connect 10 1 12 0;
#X connect 11 0 15 0;
#X connect 13 0 15 0;
#X connect 13 1 14 0;
#X connect 13 1 15 1;
#X connect 15 0 4 1;
#X connect 16 0 20 0;
#X connect 17 0 18 1;
#X connect 18 0 22 1;
#X connect 18 0 23 0;
#X connect 19 0 18 1;
#X connect 20 0 17 0;
#X connect 20 1 10 0;
#X connect 20 2 13 0;
#X connect 20 3 19 0;
#X connect 22 0 0 0;
#X connect 25 0 21 0;
#X connect 25 0 22 0;
#X connect 26 0 8 0;
#X connect 29 0 18 0;
#X connect 29 0 2 0;
