#N canvas 131 44 590 681 10;
#X obj 151 472 r size-in-samples;
#X obj 114 489 *~;
#X obj 287 159 r retrig;
#X obj 114 538 *~;
#X obj 129 353 *~;
#X obj 331 255 bng 15 250 50 0 empty empty empty 17 7 0 10 -262144
-1 -1;
#N canvas 0 23 450 300 rev 0;
#X obj 177 111 *~ -1;
#X obj 177 133 +~ 1;
#X obj 120 156 multiplex~;
#X obj 120 94 inlet~;
#X obj 120 178 outlet~;
#X obj 241 139 inlet;
#X connect 0 0 1 0;
#X connect 1 0 2 1;
#X connect 2 0 4 0;
#X connect 3 0 0 0;
#X connect 3 0 2 0;
#X connect 5 0 2 0;
#X restore 129 332 pd rev;
#X obj 114 401 +~;
#X obj 114 420 wrap~;
#X obj 14 384 r~ phasor-main;
#N canvas 672 114 450 356 gr-size 0;
#X obj 127 215 f;
#X obj 175 79 i;
#X msg 102 145 0;
#X obj 175 98 != 0;
#X obj 142 128 spigot;
#X floatatom 193 145 5 0 0 0 - - -;
#X obj 102 115 sel 0;
#X obj 142 162 f;
#X floatatom 142 184 5 0 0 0 - - -;
#X obj 127 234 * 0.0001;
#X floatatom 87 251 5 0 0 0 - - -;
#X obj 248 198 inlet;
#X obj 142 52 r grain-size;
#X obj 127 256 sig~;
#X obj 127 281 outlet~;
#X connect 0 0 9 0;
#X connect 1 0 3 0;
#X connect 2 0 7 0;
#X connect 3 0 4 1;
#X connect 3 0 6 0;
#X connect 4 0 5 0;
#X connect 4 0 7 0;
#X connect 6 0 2 0;
#X connect 7 0 8 0;
#X connect 7 0 0 1;
#X connect 9 0 10 0;
#X connect 9 0 13 0;
#X connect 11 0 0 0;
#X connect 12 0 1 0;
#X connect 12 0 4 0;
#X connect 13 0 14 0;
#X restore 144 265 pd gr-size;
#X obj 331 212 tgl 15 1 empty empty empty 17 7 0 10 -262144 -1 -1 1
1;
#X obj 244 174 mtof;
#X floatatom 203 191 5 0 0 0 - - -;
#X obj 129 374 +~;
#X obj 244 129 r note-pitch;
#X obj 244 149 +;
#X floatatom 205 166 5 0 0 0 - - -;
#X obj 324 132 t b f;
#X obj 114 630 outlet~;
#X obj 89 13 loadbang;
#X obj 89 35 i \$1;
#X floatatom 89 78 5 0 0 0 - - -;
#X obj 151 20 bng 15 250 50 0 empty empty empty 17 7 0 10 -262144 -1
-1;
#X obj 89 57 s \$0-grain-nr;
#X floatatom 14 74 5 0 0 0 - - -;
#X obj 14 52 >=;
#X obj 14 92 switch~;
#X obj 14 31 r grain-on;
#X obj 162 310 r reverse;
#X obj 392 248 t b b b;
#X obj 244 196 sig~;
#X obj 114 465 +~;
#N canvas 0 22 450 300 random-phase 0;
#X obj 124 101 random 100;
#X obj 124 121 * 0.01;
#X obj 124 82 loadbang;
#X obj 208 80 r ran-phase-am;
#X obj 208 102 * 0.01;
#X obj 123 141 *;
#X obj 208 124 t b f;
#X floatatom 123 163 5 0 0 0 - - -;
#X obj 108 205 f;
#X obj 31 99 random 100;
#X obj 31 119 * 0.01;
#X floatatom 31 141 5 0 0 0 - - -;
#X obj 108 33 inlet;
#X obj 108 257 outlet;
#X obj 108 227 change;
#X obj 31 58 r ran-ph-retrig;
#X connect 0 0 1 0;
#X connect 1 0 5 0;
#X connect 2 0 0 0;
#X connect 2 0 9 0;
#X connect 3 0 4 0;
#X connect 4 0 6 0;
#X connect 5 0 7 0;
#X connect 5 0 8 1;
#X connect 6 0 5 0;
#X connect 6 1 5 1;
#X connect 8 0 14 0;
#X connect 9 0 10 0;
#X connect 10 0 11 0;
#X connect 10 0 13 0;
#X connect 12 0 0 0;
#X connect 12 0 8 0;
#X connect 14 0 13 0;
#X connect 15 0 9 0;
#X restore 411 214 pd random-phase;
#X floatatom 411 195 5 0 0 0 - - -;
#N canvas 0 22 450 300 random-position 0;
#X obj 157 135 * 0.01;
#X obj 157 157 sig~;
#X floatatom 207 152 5 0 0 0 - - -;
#X obj 245 66 r random-position;
#X obj 157 61 del 5;
#X obj 157 40 loadbang;
#X obj 157 179 outlet~;
#X obj 86 66 inlet;
#X obj 305 100 outlet;
#X obj 245 88 * 0.01;
#X obj 157 105 *;
#X obj 157 83 random 100;
#X floatatom 107 100 5 0 0 0 - - -;
#X connect 0 0 1 0;
#X connect 0 0 2 0;
#X connect 1 0 6 0;
#X connect 3 0 9 0;
#X connect 4 0 11 0;
#X connect 5 0 4 0;
#X connect 7 0 11 0;
#X connect 9 0 10 1;
#X connect 10 0 0 0;
#X connect 11 0 8 0;
#X connect 11 0 10 0;
#X connect 11 0 12 0;
#X restore 411 357 pd random-position;
#N canvas 0 23 450 300 display-grain 0;
#X obj 164 95 r \$0-grain-nr;
#X floatatom 265 112 5 0 0 0 - - -;
#X msg 164 152 r-grain-1;
#N canvas 0 22 304 195 snapshot 0;
#X obj 117 73 snapshot~;
#X obj 63 56 bang~;
#X obj 117 40 inlet~;
#X obj 117 95 outlet;
#X connect 0 0 3 0;
#X connect 1 0 0 0;
#X connect 2 0 0 0;
#X restore 164 76 pd snapshot;
#X msg 164 114 set r-grain-\$1;
#X obj 164 133 send13;
#X obj 164 49 inlet~;
#X connect 0 0 4 0;
#X connect 0 0 1 0;
#X connect 3 0 5 0;
#X connect 4 0 2 0;
#X connect 4 0 5 0;
#X connect 6 0 3 0;
#X restore 173 437 pd display-grain;
#N canvas 0 22 453 466 envelope 0;
#X obj 148 259 line~;
#X msg 148 236 1 \, 0 \$1;
#X obj 148 215 f;
#X obj 148 406 *~;
#X obj 98 281 *~;
#X obj 199 389 sig~;
#X obj 180 173 r env-time;
#X obj 165 153 random 10000, f 13;
#X obj 331 369 f;
#X obj 165 193 *;
#N canvas 0 22 450 300 prob 0;
#X obj 152 58 inlet;
#X obj 152 80 random 100;
#X obj 152 102 moses;
#X obj 152 124 t b;
#X obj 152 146 outlet;
#X obj 232 85 inlet;
#X connect 0 0 1 0;
#X connect 1 0 2 0;
#X connect 2 0 3 0;
#X connect 3 0 4 0;
#X connect 5 0 2 1;
#X restore 148 111 pd prob;
#X obj 358 349 *;
#X obj 214 332 r env-am;
#X obj 331 306 t b b;
#X floatatom 360 386 5 0 0 0 - - -;
#X obj 358 327 random 10000;
#N canvas 0 22 450 300 odd-even 0;
#X obj 257 103 % 2;
#X obj 257 125 outlet;
#X obj 257 76 r \$0-grain-nr;
#X obj 141 120 multiplex~;
#X obj 141 56 inlet~;
#X obj 141 91 *~ 1;
#X obj 198 92 *~ -1;
#X obj 141 143 outlet~;
#X connect 0 0 1 0;
#X connect 0 0 3 0;
#X connect 2 0 0 0;
#X connect 3 0 7 0;
#X connect 4 0 5 0;
#X connect 4 0 6 0;
#X connect 5 0 3 0;
#X connect 6 0 3 1;
#X restore 148 308 pd odd-even;
#X floatatom 273 325 5 0 0 0 - - -;
#X obj 148 58 inlet;
#X obj 232 94 r p-env-prob;
#X obj 148 428 outlet~;
#X obj 199 369 f;
#X obj 148 132 t b b b b;
#X connect 0 0 4 0;
#X connect 0 0 4 1;
#X connect 0 0 16 0;
#X connect 1 0 0 0;
#X connect 2 0 1 0;
#X connect 3 0 20 0;
#X connect 5 0 3 1;
#X connect 6 0 9 1;
#X connect 7 0 9 0;
#X connect 8 0 14 0;
#X connect 9 0 2 1;
#X connect 10 0 22 0;
#X connect 11 0 8 1;
#X connect 12 0 11 1;
#X connect 12 0 21 1;
#X connect 13 0 8 0;
#X connect 13 1 15 0;
#X connect 15 0 11 0;
#X connect 16 0 3 0;
#X connect 16 1 17 0;
#X connect 18 0 10 0;
#X connect 19 0 10 1;
#X connect 21 0 5 0;
#X connect 22 0 2 0;
#X connect 22 1 7 0;
#X connect 22 2 13 0;
#X connect 22 3 21 0;
#X restore 431 448 pd envelope;
#N canvas 0 22 257 264 saw-sine 0;
#X obj 108 121 multiplex~;
#N canvas 75 23 256 194 sine 0;
#X obj 110 38 inlet~;
#X obj 110 61 cos~;
#X obj 110 83 *~ 0.5;
#X obj 110 105 +~ 0.5;
#X obj 110 127 outlet~;
#X connect 0 0 1 0;
#X connect 1 0 2 0;
#X connect 2 0 3 0;
#X connect 3 0 4 0;
#X restore 165 71 pd sine;
#X obj 29 104 r saw/sine;
#X obj 108 54 inlet~;
#X obj 108 143 outlet~;
#X connect 0 0 4 0;
#X connect 1 0 0 1;
#X connect 2 0 0 0;
#X connect 3 0 1 0;
#X connect 3 0 0 0;
#X restore 264 315 pd saw-sine;
#N canvas 0 22 450 300 random-pitch 0;
#X obj 245 77 * 0.01;
#X obj 245 96 t b f;
#X obj 170 113 *;
#X floatatom 115 130 5 0 0 0 - - -;
#X obj 245 58 r ran-pitch-am;
#X obj 170 87 random 512;
#X obj 170 54 inlet;
#X obj 170 135 outlet;
#X connect 0 0 1 0;
#X connect 1 0 2 0;
#X connect 1 1 2 1;
#X connect 2 0 3 0;
#X connect 2 0 7 0;
#X connect 4 0 0 0;
#X connect 5 0 2 0;
#X connect 6 0 5 0;
#X restore 324 105 pd random-pitch;
#X obj 244 521 window;
#X obj 244 231 phasorshot~;
#X obj 114 518 tabread4~ grain;
#X connect 0 0 1 1;
#X connect 1 0 42 0;
#X connect 3 0 19 0;
#X connect 4 0 14 0;
#X connect 6 0 4 0;
#X connect 7 0 8 0;
#X connect 8 0 32 0;
#X connect 8 0 36 0;
#X connect 9 0 7 0;
#X connect 10 0 4 1;
#X connect 11 0 41 2;
#X connect 12 0 13 0;
#X connect 12 0 31 0;
#X connect 14 0 7 1;
#X connect 15 0 16 0;
#X connect 16 0 12 0;
#X connect 16 0 17 0;
#X connect 18 0 16 0;
#X connect 18 1 16 1;
#X connect 20 0 21 0;
#X connect 21 0 22 0;
#X connect 21 0 24 0;
#X connect 21 0 26 1;
#X connect 23 0 21 0;
#X connect 26 0 25 0;
#X connect 26 0 27 0;
#X connect 28 0 26 0;
#X connect 29 0 6 1;
#X connect 30 1 10 0;
#X connect 30 1 33 0;
#X connect 30 1 35 0;
#X connect 30 1 39 0;
#X connect 30 2 37 0;
#X connect 31 0 41 0;
#X connect 32 0 1 0;
#X connect 33 0 34 0;
#X connect 33 0 41 1;
#X connect 35 0 14 1;
#X connect 37 0 32 1;
#X connect 38 0 6 0;
#X connect 39 0 18 0;
#X connect 40 0 3 1;
#X connect 41 0 38 0;
#X connect 41 0 40 0;
#X connect 41 2 5 0;
#X connect 41 2 30 0;
#X connect 42 0 3 0;
